<svg width="100%" height="100%" viewBox="0 0 123 32" fill="none" xmlns="http://www.w3.org/2000/svg">
<path d="M0.787798 16.3738H6.11286C6.14836 16.4806 6.14836 16.5873 6.14836 16.6941C6.14836 16.8009 6.14836 16.9077 6.14836 17.0145C6.14836 17.1213 6.14836 17.2281 6.14836 17.3348C6.14836 17.4416 6.11286 17.5484 6.11286 17.6552H2.20782V20.6452H5.43836C5.47386 20.752 5.47386 20.8588 5.47386 20.9655C5.47386 21.0723 5.47386 21.1791 5.47386 21.2859C5.47386 21.3927 5.47386 21.4995 5.47386 21.6063C5.47386 21.713 5.43836 21.8198 5.43836 21.9266H2.20782V26.5896C2.10131 26.6252 1.99481 26.6252 1.85281 26.6252C1.74631 26.6252 1.60431 26.6252 1.46231 26.6252C1.3558 26.6252 1.2138 26.6252 1.0718 26.6252C0.9298 26.6252 0.823298 26.5896 0.716797 26.5896V16.3738H0.787798Z" fill="#0B3A9E"/>
<path d="M10.9765 26.732C10.231 26.732 9.59194 26.5896 9.05944 26.3404C8.52693 26.0912 8.06543 25.6997 7.71042 25.237C7.35542 24.7742 7.10691 24.2047 6.92941 23.564C6.75191 22.9233 6.68091 22.2114 6.68091 21.4639C6.68091 20.6808 6.75191 20.0045 6.92941 19.3638C7.10691 18.7231 7.35542 18.1535 7.71042 17.6908C8.06543 17.2281 8.52693 16.8721 9.05944 16.5873C9.59194 16.3382 10.231 16.1958 10.9765 16.1958C11.722 16.1958 12.361 16.3382 12.8935 16.5873C13.426 16.8365 13.8875 17.2281 14.2425 17.6908C14.5975 18.1535 14.846 18.7231 15.0235 19.3638C15.201 20.0045 15.272 20.7164 15.272 21.4639C15.272 22.247 15.201 22.9233 15.0235 23.564C14.846 24.2047 14.5975 24.7742 14.2425 25.237C13.8875 25.6997 13.426 26.0556 12.8935 26.3404C12.361 26.5896 11.722 26.732 10.9765 26.732ZM10.9765 25.4861C11.438 25.4861 11.864 25.3793 12.1835 25.2014C12.5385 25.0234 12.8225 24.7386 13.0355 24.3827C13.2485 24.0267 13.426 23.5996 13.5325 23.1368C13.639 22.6385 13.71 22.069 13.71 21.4639C13.71 20.8588 13.639 20.2892 13.5325 19.7909C13.426 19.2926 13.2485 18.8654 13.0355 18.5451C12.8225 18.1891 12.5385 17.94 12.1835 17.762C11.8285 17.584 11.438 17.4772 10.9765 17.4772C10.515 17.4772 10.089 17.584 9.76945 17.762C9.41444 17.94 9.13044 18.2247 8.91744 18.5451C8.70443 18.901 8.52693 19.3282 8.42043 19.7909C8.31393 20.2892 8.24293 20.8588 8.24293 21.4639C8.24293 22.1046 8.31393 22.6385 8.42043 23.1368C8.52693 23.6352 8.70443 24.0623 8.91744 24.3827C9.13044 24.7386 9.41444 24.9878 9.76945 25.2014C10.089 25.3793 10.515 25.4861 10.9765 25.4861Z" fill="#0B3A9E"/>
<path d="M16.266 16.3382C16.479 16.3026 16.6565 16.3026 16.834 16.267C17.0115 16.2314 17.1535 16.2314 17.331 16.2314C17.5085 16.2314 17.6505 16.1958 17.8635 16.1958C18.0765 16.1958 18.254 16.1958 18.467 16.1958C18.964 16.1958 19.4255 16.2314 19.887 16.3382C20.3485 16.445 20.7745 16.5873 21.1295 16.8365C21.4845 17.0857 21.804 17.406 22.017 17.7976C22.2655 18.1891 22.372 18.7231 22.372 19.3282C22.372 19.6841 22.301 20.0401 22.1945 20.3248C22.088 20.6452 21.9105 20.8944 21.733 21.1435C21.5555 21.3927 21.3425 21.5707 21.094 21.7486C20.8455 21.9266 20.6325 22.069 20.384 22.1758L20.2065 22.247L23.1531 26.554C22.9046 26.5896 22.6205 26.5896 22.301 26.5896C22.0525 26.5896 21.804 26.5896 21.52 26.554L18.254 21.8198V21.7486L18.3605 21.713C18.609 21.6419 18.893 21.5707 19.177 21.4283C19.461 21.3215 19.7095 21.1791 19.958 20.9655C20.2065 20.7876 20.384 20.574 20.5615 20.2892C20.739 20.0401 20.81 19.7197 20.81 19.3282C20.81 18.6519 20.597 18.1535 20.2065 17.7976C19.816 17.4772 19.248 17.2992 18.5735 17.2992C18.396 17.2992 18.254 17.2992 18.112 17.2992C17.97 17.2992 17.828 17.3348 17.6505 17.3348V26.4472C17.544 26.4472 17.4375 26.4828 17.2955 26.4828C17.1535 26.4828 17.047 26.4828 16.9405 26.4828C16.834 26.4828 16.692 26.4828 16.5855 26.4828C16.4435 26.4828 16.337 26.4828 16.2305 26.4472V16.3382H16.266Z" fill="#0B3A9E"/>
<path d="M27.5195 25.0234C27.839 25.1302 28.1585 25.237 28.5135 25.3082C28.8685 25.3793 29.259 25.4505 29.756 25.4505C30.537 25.4505 31.1051 25.3082 31.4956 24.9878C31.8861 24.6674 32.0636 24.2403 32.0636 23.7064C32.0636 23.4572 32.0281 23.208 31.9571 23.0301C31.8861 22.8521 31.7441 22.6741 31.6021 22.5317C31.4246 22.3894 31.2471 22.2826 30.9986 22.1402C30.7501 22.0334 30.466 21.891 30.1465 21.7842L29.33 21.4639C29.046 21.3571 28.7975 21.2147 28.5845 21.0723C28.3715 20.93 28.1585 20.752 27.981 20.574C27.8035 20.3604 27.697 20.1469 27.5905 19.8977C27.484 19.6485 27.4485 19.3282 27.4485 18.9722C27.4485 18.1179 27.7325 17.4416 28.336 16.9433C28.904 16.445 29.756 16.1958 30.7856 16.1958C31.2471 16.1958 31.6731 16.2314 32.0636 16.3026C32.4541 16.3738 32.8446 16.4806 33.1286 16.5873C33.0931 16.9789 32.9866 17.3704 32.8091 17.762C32.5606 17.6552 32.2766 17.584 31.9216 17.5128C31.6021 17.4416 31.2116 17.406 30.7856 17.406C30.182 17.406 29.7205 17.5128 29.401 17.762C29.0815 18.0112 28.904 18.3671 28.904 18.8654C28.904 19.079 28.9395 19.257 29.0105 19.3994C29.0815 19.5417 29.188 19.6841 29.33 19.8265C29.472 19.9333 29.614 20.0401 29.7915 20.1469C29.969 20.2536 30.1465 20.3248 30.3595 20.396L31.1406 20.7164C31.5311 20.8588 31.8506 21.0367 32.1346 21.1791C32.4186 21.3571 32.6671 21.5351 32.8801 21.7486C33.0931 21.9622 33.2351 22.247 33.3416 22.5317C33.4481 22.8165 33.5191 23.1724 33.5191 23.5996C33.5191 24.5607 33.1996 25.3437 32.5251 25.9133C31.8506 26.4828 30.9276 26.7676 29.7205 26.7676C29.4365 26.7676 29.1525 26.7676 28.9395 26.732C28.691 26.6964 28.478 26.6964 28.265 26.6608C28.052 26.6252 27.8745 26.5896 27.6615 26.5184C27.484 26.4472 27.271 26.4116 27.0935 26.3404C27.129 26.1268 27.1645 25.9133 27.2355 25.6997C27.3775 25.4505 27.4485 25.237 27.5195 25.0234Z" fill="#0B3A9E"/>
<path d="M40.4772 24.2046H36.6077L35.8977 26.5539C35.7912 26.5895 35.6492 26.5895 35.5427 26.5895C35.4362 26.5895 35.2942 26.5895 35.1876 26.5895C35.0456 26.5895 34.9391 26.5895 34.7971 26.5895C34.6551 26.5895 34.5486 26.5539 34.4421 26.5539L37.7437 16.3381C37.8502 16.3025 37.9922 16.3025 38.1342 16.3025C38.2762 16.3025 38.4182 16.3025 38.5602 16.3025C38.7022 16.3025 38.8442 16.3025 38.9862 16.3025C39.1282 16.3025 39.2702 16.3381 39.4122 16.3381L42.7137 26.5539C42.6072 26.5895 42.4652 26.5895 42.3232 26.5895C42.1812 26.5895 42.0392 26.5895 41.8972 26.5895C41.7907 26.5895 41.6487 26.5895 41.5067 26.5895C41.3647 26.5895 41.2582 26.5539 41.1517 26.5539L40.4772 24.2046ZM36.9982 22.9588H40.0867L38.5247 17.7619L36.9982 22.9588Z" fill="#0B3A9E"/>
<path d="M44.2049 16.3737C44.3114 16.3381 44.4179 16.3381 44.5244 16.3381C44.6309 16.3381 44.7729 16.3381 44.9149 16.3381C45.0214 16.3381 45.1634 16.3381 45.2699 16.3381C45.3764 16.3381 45.5185 16.3737 45.625 16.3737V25.3081H49.601C49.6365 25.4149 49.6365 25.5217 49.6365 25.6285C49.6365 25.7352 49.6365 25.842 49.6365 25.9488C49.6365 26.1624 49.6365 26.376 49.601 26.5895H44.1694V16.3737H44.2049Z" fill="#0B3A9E"/>
<path d="M51.234 16.3738H56.8076C56.8431 16.5518 56.8431 16.7653 56.8431 17.0145C56.8431 17.1213 56.8431 17.2281 56.8431 17.3348C56.8431 17.4416 56.8431 17.5484 56.8076 17.6552H52.654V20.5384H55.9555C55.991 20.6452 55.991 20.752 55.991 20.8588C55.991 20.9655 55.991 21.0723 55.991 21.1791C55.991 21.2859 55.991 21.3927 55.991 21.4995C55.991 21.6063 55.9555 21.713 55.9555 21.8198H52.654V25.3082H56.9141C56.9496 25.4861 56.9496 25.6997 56.9496 25.9489C56.9496 26.0556 56.9496 26.1624 56.9496 26.2692C56.9496 26.376 56.9496 26.4828 56.9141 26.5896H51.1985V16.3738H51.234Z" fill="#0B3A9E"/>
<path d="M61.8486 17.9044C62.0616 17.8688 62.3101 17.8332 62.6296 17.8332C62.9136 17.7976 63.2687 17.7976 63.7302 17.7976C64.1207 17.7976 64.4757 17.8332 64.7952 17.9044C65.1502 17.9756 65.4342 18.0824 65.6827 18.2247C65.9312 18.3671 66.1442 18.5807 66.2862 18.8299C66.4282 19.079 66.4992 19.3994 66.4992 19.7553C66.4992 19.9689 66.4637 20.1825 66.3927 20.3605C66.3217 20.5384 66.2507 20.7164 66.1442 20.8588C66.0377 21.0012 65.8957 21.108 65.7537 21.2147C65.6117 21.3215 65.4697 21.3571 65.3277 21.3927C65.4697 21.4283 65.6472 21.4639 65.8602 21.5351C66.0377 21.6063 66.2507 21.7131 66.3927 21.891C66.5702 22.0334 66.7122 22.247 66.8187 22.4606C66.9252 22.7097 66.9962 22.9945 66.9962 23.3148C66.9962 23.7776 66.9252 24.1335 66.7477 24.4183C66.5702 24.7031 66.3572 24.9166 66.0732 25.0946C65.7892 25.2726 65.4697 25.3794 65.0792 25.4506C64.6887 25.5217 64.2982 25.5573 63.8722 25.5573C63.5527 25.5573 63.2332 25.5573 62.9136 25.5217C62.5941 25.5217 62.2391 25.4862 61.8486 25.415V17.9044ZM63.8367 20.9656C64.0142 20.9656 64.1562 20.9656 64.3337 20.93C64.4757 20.8944 64.6177 20.8588 64.7242 20.752C64.8307 20.6808 64.9372 20.574 64.9727 20.4316C65.0437 20.2893 65.0792 20.1113 65.0792 19.9333C65.0792 19.7197 65.0437 19.5774 64.9727 19.435C64.9017 19.2926 64.7952 19.2214 64.6887 19.1502C64.5822 19.079 64.4402 19.0434 64.2982 19.0078C64.1562 18.9722 64.0142 18.9722 63.8722 18.9722C63.6947 18.9722 63.5172 18.9722 63.3752 19.0078V21.0012H63.8367V20.9656ZM63.3752 24.2759C63.4817 24.2759 63.5882 24.3115 63.7302 24.3115C63.8722 24.3115 63.9787 24.3115 64.0852 24.3115C64.2272 24.3115 64.3692 24.3115 64.5467 24.2759C64.6887 24.2403 64.8662 24.2047 65.0082 24.0979C65.1502 24.0268 65.2567 23.92 65.3632 23.7776C65.4697 23.6352 65.5052 23.4572 65.5052 23.2081C65.5052 22.9945 65.4697 22.8165 65.3987 22.6741C65.3277 22.5318 65.2212 22.425 65.1147 22.3182C64.9727 22.247 64.8307 22.1758 64.6532 22.1402C64.4757 22.1046 64.2982 22.1046 64.0497 22.1046H63.4107V24.2759H63.3752Z" fill="#0B3A9E"/>
<path d="M69.3037 22.7452L66.9607 17.9398C67.2447 17.9042 67.5287 17.8687 67.8482 17.8687C68.0967 17.8687 68.3807 17.9042 68.6292 17.9398L70.1202 21.3214L71.5758 17.9398C71.8243 17.9042 72.1083 17.8687 72.3568 17.8687C72.6053 17.8687 72.8893 17.9042 73.1733 17.9398L70.8302 22.7452V25.4504C70.6882 25.486 70.5462 25.486 70.4397 25.486C70.2977 25.486 70.1912 25.486 70.0492 25.486C69.9427 25.486 69.8007 25.486 69.6942 25.486C69.5522 25.486 69.4457 25.4504 69.3037 25.4504V22.7452Z" fill="#0B3A9E"/>
<path d="M80.3443 26.732C79.5633 26.732 78.9243 26.5896 78.3563 26.3404C77.7883 26.0912 77.3268 25.6997 76.9718 25.237C76.6168 24.7742 76.3327 24.2047 76.1552 23.564C75.9777 22.9233 75.9067 22.2114 75.9067 21.4639C75.9067 20.7164 75.9777 20.0045 76.1552 19.3638C76.3327 18.7231 76.5812 18.1535 76.9718 17.6908C77.3268 17.2281 77.7883 16.8365 78.3563 16.5873C78.9243 16.3382 79.5633 16.1958 80.3443 16.1958C81.1253 16.1958 81.7643 16.3382 82.3323 16.5873C82.9003 16.8365 83.3618 17.2281 83.7168 17.6908C84.0718 18.1535 84.3559 18.7231 84.5334 19.3638C84.7109 20.0045 84.7819 20.7164 84.7819 21.4639C84.7819 22.2114 84.7109 22.9233 84.5334 23.564C84.3559 24.2047 84.1073 24.7386 83.7168 25.237C83.3618 25.6997 82.9003 26.0556 82.3323 26.3404C81.7643 26.5896 81.1253 26.732 80.3443 26.732ZM80.3443 24.9878C81.7998 24.9878 82.5453 23.8132 82.5453 21.4639C82.5453 20.2892 82.3678 19.3994 82.0128 18.8298C81.6578 18.2603 81.1253 17.94 80.3798 17.94C78.8888 17.94 78.1433 19.1146 78.1433 21.4639C78.1433 23.8487 78.8888 24.9878 80.3443 24.9878Z" fill="#0B3A9E"/>
<path d="M85.1724 16.3739C85.5274 16.3027 85.8824 16.3027 86.3439 16.3027C86.5214 16.3027 86.6989 16.3027 86.8764 16.3027C87.0539 16.3027 87.2314 16.3383 87.4089 16.3739L88.8644 24.0624L90.6039 16.3739C90.7814 16.3383 90.9589 16.3383 91.1364 16.3027C91.3139 16.3027 91.4559 16.2671 91.6334 16.2671C91.9174 16.2671 92.237 16.3027 92.5565 16.3383L94.367 24.2048L95.8225 16.3383C96.1065 16.2671 96.426 16.2671 96.7455 16.2671C96.923 16.2671 97.1005 16.2671 97.3135 16.3027C97.491 16.3383 97.6685 16.3383 97.846 16.3739L95.3965 26.5897C95.0415 26.6609 94.6865 26.6609 94.3315 26.6609C93.9765 26.6609 93.586 26.6253 93.16 26.5897L91.5269 19.791L89.7874 26.5897C89.5744 26.6253 89.3614 26.6253 89.1839 26.6609C89.0064 26.6965 88.8289 26.6965 88.6159 26.6965C88.3319 26.6965 88.0124 26.6609 87.6574 26.6253L85.1724 16.3739Z" fill="#0B3A9E"/>
<path d="M98.698 16.3737C98.982 16.3025 99.266 16.3025 99.55 16.3025C99.834 16.3025 100.118 16.3381 100.438 16.3737L104.343 22.852V16.3737C104.698 16.3025 105.017 16.3025 105.337 16.3025C105.621 16.3025 105.905 16.3381 106.189 16.3737V26.5895C105.869 26.6607 105.621 26.6607 105.372 26.6607C105.124 26.6607 104.804 26.6251 104.52 26.5895L100.544 20.1112V26.5895C100.225 26.6607 99.9405 26.6607 99.621 26.6607C99.3015 26.6607 99.0175 26.6251 98.698 26.5895V16.3737Z" fill="#0B3A9E"/>
<path d="M107.609 16.3738H113.395C113.466 16.6585 113.466 16.9433 113.466 17.2281C113.466 17.5484 113.431 17.8332 113.395 18.1179H109.668V20.3248H112.614C112.685 20.6452 112.685 20.93 112.685 21.2147C112.685 21.4995 112.65 21.8198 112.614 22.1046H109.668V24.8098H113.466C113.537 25.0946 113.537 25.3793 113.537 25.6641C113.537 25.9845 113.502 26.2692 113.466 26.554H107.609V16.3738Z" fill="#0B3A9E"/>
<path d="M114.638 16.3738C115.064 16.3382 115.454 16.3026 115.809 16.267C116.164 16.2314 116.59 16.2314 117.016 16.2314C117.549 16.2314 118.046 16.267 118.543 16.3738C119.04 16.4806 119.501 16.623 119.892 16.8722C120.282 17.1213 120.637 17.4417 120.886 17.8688C121.134 18.296 121.276 18.7943 121.276 19.435C121.276 19.8266 121.241 20.1469 121.134 20.4317C121.028 20.7164 120.921 20.9656 120.779 21.1792C120.637 21.3927 120.46 21.5707 120.318 21.7487C120.176 21.9267 119.998 22.0334 119.821 22.1402L119.572 22.2826L122.057 26.5896C121.88 26.6252 121.667 26.6252 121.454 26.6608C121.241 26.6964 121.028 26.6964 120.815 26.6964C120.46 26.6964 120.105 26.6608 119.75 26.6252L117.087 21.8911L117.442 21.7131C117.584 21.6419 117.726 21.5707 117.939 21.4639C118.117 21.3571 118.294 21.2148 118.472 21.0724C118.649 20.93 118.791 20.7164 118.933 20.5029C119.04 20.2893 119.111 20.0045 119.111 19.7198C119.111 19.1146 118.933 18.6875 118.614 18.4027C118.259 18.118 117.833 17.9756 117.3 17.9756C117.087 17.9756 116.91 17.9756 116.732 18.0112V26.6252C116.555 26.6608 116.377 26.6608 116.235 26.6608C116.093 26.6608 115.916 26.6964 115.738 26.6964C115.561 26.6964 115.419 26.6964 115.241 26.6964C115.064 26.6964 114.886 26.6608 114.673 26.6252V16.3738H114.638Z" fill="#0B3A9E"/>
<path d="M55.4229 11.3904L49.7783 7.72414V2.06452H44.8082V4.55617L37.7792 0L23.437 8.64961L15.1654 3.48832L0.752197 12.4227H4.23124L15.1654 5.65962L26.135 12.4227H29.5431L25.496 9.93104L37.7792 2.45606L53.2574 12.4227H57.0559L55.4229 11.3904Z" fill="#EA0029"/>
<path d="M0.752197 30.2559H56.9849V32H0.752197V30.2559Z" fill="#0B3A9E"/>
</svg>
